<?xml version="1.0" encoding="utf-8" standalone="no"?>
<!DOCTYPE svg PUBLIC "-//W3C//DTD SVG 1.1//EN"
  "http://www.w3.org/Graphics/SVG/1.1/DTD/svg11.dtd">
<svg xmlns:xlink="http://www.w3.org/1999/xlink" width="111.6pt" height="110.88pt" viewBox="0 0 111.6 110.88" xmlns="http://www.w3.org/2000/svg" version="1.1">
 <metadata>
  <rdf:RDF xmlns:dc="http://purl.org/dc/elements/1.1/" xmlns:cc="http://creativecommons.org/ns#" xmlns:rdf="http://www.w3.org/1999/02/22-rdf-syntax-ns#">
   <cc:Work>
    <dc:type rdf:resource="http://purl.org/dc/dcmitype/StillImage"/>
    <dc:date>2024-06-24T12:08:42.306578</dc:date>
    <dc:format>image/svg+xml</dc:format>
    <dc:creator>
     <cc:Agent>
      <dc:title>Matplotlib v3.6.3, https://matplotlib.org/</dc:title>
     </cc:Agent>
    </dc:creator>
   </cc:Work>
  </rdf:RDF>
 </metadata>
 <defs>
  <style type="text/css">*{stroke-linejoin: round; stroke-linecap: butt}</style>
 </defs>
 <g id="figure_1">
  <g id="patch_1">
   <path d="M 0 110.88 
L 111.6 110.88 
L 111.6 0 
L 0 0 
L 0 110.88 
z
" style="fill: none; opacity: 0"/>
  </g>
  <g id="axes_1">
   <g id="patch_2">
    <path d="M 55.8 72.072 
C 64.679 72.072 73.195534 70.319548 79.473935 67.2006 
C 85.752336 64.081652 89.28 59.850858 89.28 55.44 
C 89.28 51.029142 85.752336 46.798348 79.473935 43.6794 
C 73.195534 40.560452 64.679 38.808 55.8 38.808 
C 46.921 38.808 38.404466 40.560452 32.126065 43.6794 
C 25.847664 46.798348 22.32 51.029142 22.32 55.44 
C 22.32 59.850858 25.847664 64.081652 32.126065 67.2006 
C 38.404466 70.319548 46.921 72.072 55.8 72.072 
z
" clip-path="url(#p84c9af0fd1)" style="fill: #add8e6; stroke: #0000ff; stroke-linejoin: miter"/>
   </g>
   <g id="patch_3">
    <path d="M 22.32 55.44 
L 0 66.528 
L 0 44.352 
z
" clip-path="url(#p84c9af0fd1)" style="fill: #0000ff; stroke: #0000ff; stroke-linejoin: miter"/>
   </g>
   <g id="patch_4">
    <path d="M 72.54 53.2224 
C 73.4279 53.2224 74.279553 52.87191 74.907394 52.24812 
C 75.535234 51.62433 75.888 50.778172 75.888 49.896 
C 75.888 49.013828 75.535234 48.16767 74.907394 47.54388 
C 74.279553 46.92009 73.4279 46.5696 72.54 46.5696 
C 71.6521 46.5696 70.800447 46.92009 70.172606 47.54388 
C 69.544766 48.16767 69.192 49.013828 69.192 49.896 
C 69.192 50.778172 69.544766 51.62433 70.172606 52.24812 
C 70.800447 52.87191 71.6521 53.2224 72.54 53.2224 
z
" clip-path="url(#p84c9af0fd1)" style="stroke: #000000; stroke-linejoin: miter"/>
   </g>
  </g>
 </g>
 <defs>
  <clipPath id="p84c9af0fd1">
   <rect x="0" y="-0" width="111.6" height="110.88"/>
  </clipPath>
 </defs>
</svg>
